<svg xmlns="http://www.w3.org/2000/svg" width="114.238" height="48.514"><g data-name="Group 5305"><g data-name="Group 5290"><path data-name="Path 1" d="M33.686 13.106a2.028 2.028 0 00-1.138-1.785 33.679 33.679 0 00-9.76-3.456l2.553-3.83h6.334a2.017 2.017 0 100-4.033h-7.414a2.016 2.016 0 00-1.677.9l-4.3 6.454a32.982 32.982 0 00-17.132 3.967 2.034 2.034 0 00-1.121 2.1c.015.2 7.414 29.654 7.454 29.865a2.017 2.017 0 001.054 1.314l7.414 3.707a2.018 2.018 0 001.8 0l7.414-3.707a2.016 2.016 0 001.054-1.314l7.414-29.654a1.946 1.946 0 00.051-.528zm-18.091-1.73l-.428.643a2.017 2.017 0 003.356 2.237l1.8-2.7a28.441 28.441 0 016.689 1.654l-10.164 5.082L6.684 13.21a28.5 28.5 0 018.909-1.834zm6.931 30.027l-5.682 2.841-5.682-2.841-6.125-24.5 10.905 5.453a2.018 2.018 0 001.8 0l10.905-5.453z"/></g><g data-name="Group 5291"><path data-name="Path 2" d="M42.004 16.082a.443.443 0 01.417-.371h.37a.509.509 0 01.394.232l5.371 10h.047l5.372-10a.509.509 0 01.393-.232h.371a.443.443 0 01.417.371l2.616 15.559a.424.424 0 01-.44.509H54.6a.471.471 0 01-.44-.37l-1.042-7.155h-.046l-3.89 7.5a.541.541 0 01-.394.255h-.417a.5.5 0 01-.394-.255l-3.913-7.5h-.047l-1.019 7.155a.451.451 0 01-.44.37h-2.732a.424.424 0 01-.44-.509z"/><path data-name="Path 3" d="M65.599 29.951l1.088-1.922a.6.6 0 01.787-.139 6.919 6.919 0 003.288 1.274 1.451 1.451 0 001.6-1.389c0-.972-.81-1.713-2.385-2.338-1.992-.787-4.492-2.338-4.492-5.117 0-2.292 1.783-4.608 5.349-4.608a8.613 8.613 0 014.954 1.737.587.587 0 01.139.741l-1.185 1.781c-.162.255-.579.463-.787.3a7.255 7.255 0 00-3.311-1.39 1.343 1.343 0 00-1.459 1.181c0 .857.694 1.505 2.524 2.246 1.806.717 4.677 2.13 4.677 5.279 0 2.385-2.06 4.793-5.464 4.793a7.351 7.351 0 01-5.21-1.782c-.229-.231-.298-.323-.113-.647z"/><path data-name="Path 4" d="M84.223 23.632a.237.237 0 01.238-.238h2.8a2.272 2.272 0 011.3 4.3 2.265 2.265 0 011.563 2.039 2.5 2.5 0 01-2.727 2.414h-2.939a.237.237 0 01-.238-.238zm3.164 7.367a1.333 1.333 0 001.351-1.363 1.437 1.437 0 00-1.539-1.313h-1.713V31zm-.2-3.8a1.255 1.255 0 001.288-1.339 1.208 1.208 0 00-1.288-1.288h-1.689v2.627z"/><path data-name="Path 5" d="M96.641 27.447v-.025l-.288-.313a2.531 2.531 0 01-.863-1.814 2.1 2.1 0 012.289-2.026 2.047 2.047 0 012.239 1.989c0 1.2-1.2 2-1.688 2.339l1.751 1.751a4.518 4.518 0 00.476-1.8c.012-.275.112-.35.349-.3l.513.1c.287.05.225.275.212.388a6.689 6.689 0 01-.763 2.4l1.163 1.126c.151.15.263.287-.025.575l-.326.326a.351.351 0 01-.537-.037l-.988-1a3.575 3.575 0 01-2.727 1.151 2.345 2.345 0 01-2.527-2.327 2.989 2.989 0 011.74-2.503zm.888 3.778a2.435 2.435 0 001.876-.9l-2.088-2.2a2.143 2.143 0 00-1.227 1.75 1.367 1.367 0 001.439 1.35zm1.376-5.917a1.113 1.113 0 00-1.188-1.076 1.048 1.048 0 00-1.113 1.076 1.808 1.808 0 00.726 1.275l.275.276c.374-.226 1.3-.713 1.3-1.551z"/><path data-name="Path 6" d="M106.745 23.632a.235.235 0 01.226-.238h2.877a4.378 4.378 0 110 8.756h-2.877a.235.235 0 01-.226-.238zm2.927 7.33a3.19 3.19 0 000-6.38h-1.651v6.38z"/></g></g></svg>